<svg xmlns="http://www.w3.org/2000/svg" width="36" height="36" viewBox="0 0 36 36"><defs><style>.a{fill:#fff;}.b,.c,.d{fill:none;}.c{stroke:#0b090a;}.c,.d{stroke-linecap:round;stroke-linejoin:round;stroke-width:1.5px;}.d{stroke:#0065ef;}</style></defs><g transform="translate(-282 -340)"><rect class="a" width="36" height="36" rx="5" transform="translate(282 340)"/><g transform="translate(-33.956 10.544)"><g transform="translate(320 333)"><path class="b" d="M0,0H24V24H0Z"/><circle class="c" cx="4" cy="4" r="4" transform="translate(8 3)"/><path class="c" d="M6,21V19a4,4,0,0,1,4-4h4a4,4,0,0,1,4,4v2"/></g><g transform="translate(330.088 344.088)"><circle class="a" cx="7" cy="7" r="7" transform="translate(1.912 1.912)"/><path class="b" d="M17.824,0H0V17.824H17.824Z"/><line class="d" x1="10" transform="translate(3.912 8.912)"/><line class="d" x1="4" y2="4" transform="translate(9.912 8.912)"/><line class="d" x1="4" y1="4" transform="translate(9.912 4.912)"/></g></g></g></svg>