<svg xmlns="http://www.w3.org/2000/svg" width="36" height="36" viewBox="0 0 36 36"><defs><style>.a{fill:#fff;opacity:0;}.b,.c,.d{fill:none;}.c{stroke:#0b090a;}.c,.d{stroke-linecap:round;stroke-linejoin:round;stroke-width:1.5px;}.d{stroke:#009e4a;}</style></defs><g transform="translate(-323 -508)"><rect class="a" width="36" height="36" rx="5" transform="translate(323 508)"/><g transform="translate(327 512)"><path class="b" d="M0,0H28V28H0Z"/><circle class="c" cx="10.5" cy="10.5" r="10.5" transform="translate(3.5 3.5)"/><path class="d" d="M15.767,9.167A2.333,2.333,0,0,0,13.667,8H11.333a2.333,2.333,0,0,0,0,4.667h2.333a2.333,2.333,0,1,1,0,4.667H11.333a2.333,2.333,0,0,1-2.1-1.167" transform="translate(1.5 1.333)"/><path class="d" d="M12,6V8.333m0,9.333V20" transform="translate(2 1)"/></g></g></svg>