<svg xmlns="http://www.w3.org/2000/svg" width="36" height="36" viewBox="0 0 36 36"><defs><style>.a{fill:#fff;opacity:0;}.b,.c,.d{fill:none;}.c{stroke:#0b090a;}.c,.d{stroke-linecap:round;stroke-linejoin:round;stroke-width:1.5px;}.d{stroke:#009e4a;}</style></defs><g transform="translate(-323 -441)"><rect class="a" width="36" height="36" rx="5" transform="translate(323 441)"/><g transform="translate(327 445)"><path class="b" d="M0,0H28V28H0Z"/><path class="c" d="M9.833,7h-3.5A2.333,2.333,0,0,0,4,9.333v10.5a2.333,2.333,0,0,0,2.333,2.333h10.5a2.333,2.333,0,0,0,2.333-2.333v-3.5" transform="translate(0.667 1.167)"/><path class="d" d="M9,17.02h3.5L22.417,7.1a2.475,2.475,0,1,0-3.5-3.5L9,13.52v3.5" transform="translate(1.5 0.48)"/><line class="d" x2="3.5" y2="3.5" transform="translate(18.667 5.833)"/></g></g></svg>