<svg xmlns="http://www.w3.org/2000/svg" width="36" height="36" viewBox="0 0 36 36"><defs><style>.a,.d{fill:#fff;}.a{opacity:0;}.b,.c,.e{fill:none;}.c{stroke:#0b090a;}.c,.e{stroke-linecap:round;stroke-linejoin:round;stroke-width:1.5px;}.e{stroke:#009e4a;}</style></defs><g transform="translate(-282 -340)"><rect class="a" width="36" height="36" rx="5" transform="translate(282 340)"/><g transform="translate(-33.956 10.544)"><g transform="translate(320 333)"><path class="b" d="M0,0H24V24H0Z"/><circle class="c" cx="4" cy="4" r="4" transform="translate(8 3)"/><path class="c" d="M6,21V19a4,4,0,0,1,4-4h4a4,4,0,0,1,4,4v2"/></g><g transform="translate(7)"><circle class="d" cx="7" cy="7" r="7" transform="translate(325 346)"/><g transform="translate(323.088 344.088)"><path class="b" d="M0,0H17.824V17.824H0Z"/><line class="e" x2="10" transform="translate(3.912 8.912)"/><line class="e" x2="4" y2="4" transform="translate(3.912 8.912)"/><line class="e" y1="4" x2="4" transform="translate(3.912 4.912)"/></g></g></g></g></svg>